<svg enable-background="new 0 0 200 200" viewBox="0 0 200 200" xmlns="http://www.w3.org/2000/svg"><g fill="#002bff"><path d="m98.6 67-10.8-12.5 3.8-3.3 7.1 8.3 7.6-8.3 3.7 3.3z"/><path d="m123.9 28.4h6v37.2h-6z"/><path d="m103.6 64.1h43.1v6h-43.1z" transform="matrix(.7451 -.6669 .6669 .7451 -12.869 100.5565)"/><path d="m68 28.4h6v37.2h-6z"/><path d="m69.7 45.6h6v43.1h-6z" transform="matrix(.6671 -.745 .745 .6671 -25.8226 76.546)"/><path d="m85.7 78.7h26.2s25.4 74.6-13.1 92.9c-40-19.4-13.1-92.9-13.1-92.9z" opacity=".37"/><path d="m174 148.1c-17.4 0-43.1-3-62.8-17.9-15.3-11.7-24.4-28.7-26.8-50.6l7-.8c2.2 19.9 10.3 35.3 24.1 45.7 24.4 18.6 60.4 17 72.7 15.8-19.6-48.4-76.5-55.5-77.1-55.6l.8-7c.7.1 16.5 2 34.8 10.8 24.4 11.7 41.6 30.3 49.6 53.6l1.4 3.9-4.1.7c-.9.2-8.6 1.4-19.6 1.4z"/><path d="m24 148.1c-11 0-18.7-1.2-19.5-1.3l-4.1-.7 1.4-3.9c8-23.3 25.2-41.8 49.6-53.6 18.3-8.8 34.1-10.7 34.8-10.8l.8 7c-.6.1-57.6 7.3-77.1 55.6 12.3 1.2 48.2 2.8 72.7-15.8 13.8-10.5 21.9-25.9 24.1-45.7l7 .8c-2.4 21.9-11.5 38.9-26.8 50.6-19.8 14.8-45.5 17.8-62.9 17.8z"/></g></svg>