<svg xmlns="http://www.w3.org/2000/svg" viewBox="0 0 200.37 213.41"><defs><style>.cls-1{fill:#002bff;}</style></defs><title>logo_2</title><g id="Livello_2" data-name="Livello 2"><g id="Livello_1-2" data-name="Livello 1"><path class="cls-1" d="M100.13,151.73c-13.64,0-21-26.6-21-51.64,0-17.26,3.37-32.59,9.25-42.06l.88-1.42H101c4.08,0,9.82.41,10.07.43l1.7.12.77,1.53c4.68,9.4,7.58,25.27,7.58,41.4C121.13,125.13,113.77,151.73,100.13,151.73ZM92.64,62.61c-4.78,8.65-7.51,22.17-7.51,37.48,0,26.12,7.92,45.64,15,45.64s15-19.52,15-45.64c0-14.39-2.37-28.4-6.23-37.18-2-.12-5.35-.3-7.89-.3Z"/><path class="cls-1" d="M60.14,139.31a20.39,20.39,0,0,1-4.59-.52c-7-1.6-10.88-6.94-11-15,0-.59,0-1.2,0-1.82-24.42.83-41-4.3-42-4.62L0,116.5,1,114C9.75,92,27.38,76.71,52,69.75a106.71,106.71,0,0,1,34.72-3.9l.57.05,15.37,9.18V76.5c0,16.82-10.76,44.13-26.2,56.44C71.14,137.15,65.59,139.31,60.14,139.31ZM49.59,121.68c0,.68-.06,1.35-.05,2,.09,5.82,2.43,9.17,7.13,10.25,5.42,1.24,11-.41,16.64-4.89C86.82,118.26,97,93.65,97.61,77.9l-11.9-7.1c-.61,0-1.7-.09-3.18-.1l.24.91c-11.62,3.06-28.46,27.52-32.39,45a151.06,151.06,0,0,0,32.05-5.76l1.41,4.8A157.67,157.67,0,0,1,49.59,121.68ZM6.73,113.26a143.19,143.19,0,0,0,38.48,3.57C48.28,101,61.26,80.17,73.41,71a104.06,104.06,0,0,0-20.23,3.59C30.87,81,15.26,94,6.73,113.26Z"/><path class="cls-1" d="M141.86,139.77c-5.6,0-11.36-2.27-16.91-6.69-16-12.77-27.2-40.07-27.2-56.58V75.08L113.05,66l.49-.08a89,89,0,0,1,33.2,2.6c16.63,4.46,39.25,16,52.61,45.43l1,2.27-2.26,1c-.86.4-15.37,6.84-41,5.68,0,.62,0,1.24,0,1.83-.13,7.82-4,13-10.75,14.54A20.15,20.15,0,0,1,141.86,139.77ZM102.78,77.9C103.4,93.37,114,118,128.06,129.17c5.93,4.72,11.73,6.47,17.25,5.21,4.53-1,6.78-4.23,6.87-9.75,0-.67,0-1.36-.05-2.07a168.75,168.75,0,0,1-35.61-7l1.46-4.78a163.2,163.2,0,0,0,33.38,6.61C147.25,99,128.84,74.57,117.61,71.61l.3-1.12c-1.51.09-2.59.2-3.16.27Zm53.71,39.87c19.26,1,32.13-2.52,37.17-4.22-17.44-35.71-49.79-42.3-67.33-43.09C139.2,79.43,153.25,101.25,156.49,117.77Z"/><polygon class="cls-1" points="99.82 45.56 89.03 33.02 92.83 29.76 99.93 38.02 107.48 29.71 111.18 33.07 99.82 45.56"/><path class="cls-1" d="M63.14,211.78a12.74,12.74,0,0,1-9.77-3.88C49,203.21,49.48,196,49.5,195.74l.69-18.94,5.1.18-.7,19c0,.14-.32,5.39,2.53,8.43a7.8,7.8,0,0,0,6,2.23Z"/><rect class="cls-1" x="56.13" y="191.78" width="34.78" height="5" transform="translate(-121.42 266.05) rotate(-89.49)"/><path class="cls-1" d="M89.63,213.06l-1.48-4.77s3.54-1.18,4.57-4.12c.79-2.25,0-5.16-2.32-8.66-3.25-4.9-4.21-9.32-2.85-13.13,1.89-5.31,7.56-7.12,7.8-7.19L96.83,180l-.74-2.38.75,2.38s-3.56,1.18-4.59,4.12c-.78,2.25,0,5.17,2.32,8.66,3.25,4.9,4.21,9.32,2.85,13.14C95.53,211.18,89.87,213,89.63,213.06Z"/><rect class="cls-1" x="108.31" y="176.89" width="5" height="34.78"/><path class="cls-1" d="M133.49,213.41c-.23-.07-5.78-1.64-7.94-6.83-1.58-3.82-.89-8.37,2.06-13.54,2.14-3.75,2.73-6.83,1.77-9.15-1.2-2.9-4.6-3.9-4.63-3.91l1.32-4.82c.23.06,5.78,1.63,7.93,6.82,1.59,3.82.89,8.37-2.05,13.54-2.14,3.75-2.74,6.83-1.78,9.15,1.21,2.9,4.61,3.9,4.64,3.91Z"/><rect class="cls-1" x="145.17" y="176.89" width="5.1" height="34.78"/><rect class="cls-1" x="126.07" width="6" height="44.24"/><rect class="cls-1" x="105.85" y="42.64" width="43.09" height="6" transform="translate(2.03 96.6) rotate(-41.83)"/><rect class="cls-1" x="68.2" width="6" height="44.24"/><rect class="cls-1" x="69.88" y="24.1" width="6" height="43.09" transform="translate(-9.74 69.5) rotate(-48.16)"/></g></g></svg>