<?xml version="1.0" encoding="utf-8"?>
<!-- Generator: Adobe Illustrator 22.1.0, SVG Export Plug-In . SVG Version: 6.00 Build 0)  -->
<svg version="1.1" id="Livello_1" xmlns="http://www.w3.org/2000/svg" xmlns:xlink="http://www.w3.org/1999/xlink" x="0px" y="0px"
	 viewBox="0 0 200.4 85" style="enable-background:new 0 0 200.4 85;" xml:space="preserve">
<style type="text/css">
	.st0{fill:#002BFF;}
</style>
<g id="Livello_1_1_">
	<title>logo_2</title>
	<g>
		<path class="st0" d="M30.5,76.4c-7,0.4-13.7-2.3-18.6-7.4c-8.3-8.9-7.4-22.6-7.4-23.1L5.9,10l9.7,0.4l-1.3,36
			c0,0.2-0.6,10.2,4.7,15.9c3,3,7.2,4.6,11.4,4.2L30.5,76.4z"/>
	</g>
	<g>
		
			<rect x="17.3" y="38.4" transform="matrix(8.900393e-03 -1 1 8.900393e-03 6.6736 93.0854)" class="st0" width="66" height="9.5"/>
	</g>
	<g>
		<path class="st0" d="M80.8,78.8L78,69.7c0,0,6.6-2.3,8.7-7.8c1.5-4.2,0-9.9-4.4-16.5c-6.1-9.3-8-17.6-5.3-24.8
			c3.6-10,14.4-13.5,14.8-13.7l2.8,9.1l-1.3-4.6l1.5,4.6c0,0-6.8,2.3-8.7,7.8c-1.5,4.2,0,9.9,4.4,16.5c6.1,9.3,8,17.6,5.3,24.8
			C92,75.2,81.4,78.8,80.8,78.8z"/>
	</g>
	<g>
		<rect x="116.2" y="10.2" class="st0" width="9.5" height="66"/>
	</g>
	<g>
		<path class="st0" d="M164,79.6c-0.4-0.2-11-3-15-12.9c-3-7.2-1.7-15.9,4-25.6c4-7.2,5.1-12.9,3.4-17.3c-2.3-5.5-8.7-7.4-8.7-7.4
			l2.5-9.1c0.4,0.2,11,3,15,12.9c3,7.2,1.7,15.9-4,25.6c-4,7.2-5.1,12.9-3.4,17.3c2.3,5.5,8.7,7.4,8.7,7.4L164,79.6z"/>
	</g>
	<g>
		<rect x="186.2" y="10.2" class="st0" width="9.7" height="66"/>
	</g>
</g>
</svg>
