<?xml version="1.0" encoding="utf-8"?>
<!-- Generator: Adobe Illustrator 22.1.0, SVG Export Plug-In . SVG Version: 6.00 Build 0)  -->
<svg version="1.1" xmlns="http://www.w3.org/2000/svg" xmlns:xlink="http://www.w3.org/1999/xlink" x="0px" y="0px"
	 viewBox="0 0 200.4 213.4" style="enable-background:new 0 0 200.4 213.4;" xml:space="preserve">
<style type="text/css">
	.st0{fill:#002BFF;}
	.st1{opacity:0.37;}
</style>
<g id="Livello_1">
	<title>logo_2</title>
	<g>
		<polygon class="st0" points="100.8,41.3 90,28.8 93.8,25.5 100.9,33.8 108.5,25.5 112.2,28.8 		"/>
	</g>
	<g>
		<path class="st0" d="M63.1,201c-3.7,0.2-7.2-1.2-9.8-3.9c-4.4-4.7-3.9-11.9-3.9-12.2l0.7-18.9l5.1,0.2l-0.7,19
			c0,0.1-0.3,5.4,2.5,8.4c1.6,1.6,3.8,2.4,6,2.2L63.1,201z"/>
	</g>
	<g>
		
			<rect x="56.1" y="181" transform="matrix(8.901099e-03 -1 1 8.901099e-03 -110.6525 255.3826)" class="st0" width="34.8" height="5"/>
	</g>
	<g>
		<path class="st0" d="M89.6,202.3l-1.5-4.8c0,0,3.5-1.2,4.6-4.1c0.8-2.2,0-5.2-2.3-8.7c-3.2-4.9-4.2-9.3-2.8-13.1
			c1.9-5.3,7.6-7.1,7.8-7.2l1.5,4.8l-0.7-2.4l0.8,2.4c0,0-3.6,1.2-4.6,4.1c-0.8,2.2,0,5.2,2.3,8.7c3.2,4.9,4.2,9.3,2.8,13.1
			C95.5,200.4,89.9,202.3,89.6,202.3z"/>
	</g>
	<g>
		<rect x="108.3" y="166.1" class="st0" width="5" height="34.8"/>
	</g>
	<g>
		<path class="st0" d="M133.5,202.7c-0.2-0.1-5.8-1.6-7.9-6.8c-1.6-3.8-0.9-8.4,2.1-13.5c2.1-3.8,2.7-6.8,1.8-9.1
			c-1.2-2.9-4.6-3.9-4.6-3.9l1.3-4.8c0.2,0.1,5.8,1.6,7.9,6.8c1.6,3.8,0.9,8.4-2.1,13.5c-2.1,3.8-2.7,6.8-1.8,9.1
			c1.2,2.9,4.6,3.9,4.6,3.9L133.5,202.7z"/>
	</g>
	<g>
		<rect x="145.2" y="166.1" class="st0" width="5.1" height="34.8"/>
	</g>
	<g>
		<rect x="126.1" y="2.7" class="st0" width="6" height="37.2"/>
	</g>
	<g>
		<rect x="105.8" y="38.4" transform="matrix(0.7451 -0.6669 0.6669 0.7451 4.862 95.5123)" class="st0" width="43.1" height="6"/>
	</g>
	<g>
		<rect x="70.2" y="2.7" class="st0" width="6" height="37.2"/>
	</g>
	<g>
		<rect x="71.9" y="19.9" transform="matrix(0.6671 -0.745 0.745 0.6671 -5.913 69.5714)" class="st0" width="6" height="43.1"/>
	</g>
</g>
<g id="Livello_2">
	<g class="st1">
		<path class="st0" d="M87.9,53h26.2c0,0,25.4,74.6-13.1,92.9C61,126.5,87.9,53,87.9,53z"/>
	</g>
	<g>
		<path class="st0" d="M176.2,122.4c-17.4,0-43.1-3-62.8-17.9C98.1,92.8,89,75.8,86.6,53.9l7-0.8c2.2,19.9,10.3,35.3,24.1,45.7
			c24.4,18.6,60.4,17,72.7,15.8c-19.6-48.4-76.5-55.5-77.1-55.6l0.8-7c0.7,0.1,16.5,2,34.8,10.8c24.4,11.7,41.6,30.3,49.6,53.6
			l1.4,3.9l-4.1,0.7C194.9,121.2,187.2,122.4,176.2,122.4z"/>
	</g>
	<g>
		<path class="st0" d="M26.2,122.4c-11,0-18.7-1.2-19.5-1.3l-4.1-0.7l1.4-3.9c8-23.3,25.2-41.8,49.6-53.6
			c18.3-8.8,34.1-10.7,34.8-10.8l0.8,7c-0.6,0.1-57.6,7.3-77.1,55.6c12.3,1.2,48.2,2.8,72.7-15.8c13.8-10.5,21.9-25.9,24.1-45.7
			l7,0.8c-2.4,21.9-11.5,38.9-26.8,50.6C69.3,119.4,43.6,122.4,26.2,122.4z"/>
	</g>
</g>
</svg>
