<?xml version="1.0" encoding="utf-8"?>
<!-- Generator: Adobe Illustrator 22.1.0, SVG Export Plug-In . SVG Version: 6.00 Build 0)  -->
<svg version="1.1" id="Capa_1" xmlns="http://www.w3.org/2000/svg" xmlns:xlink="http://www.w3.org/1999/xlink" x="0px" y="0px"
	 viewBox="0 0 512 512" style="enable-background:new 0 0 512 512;" xml:space="preserve">
<style type="text/css">
	.st0{fill:#1F25FA;}
</style>
<g>
	<path class="st0" d="M336.3,428.7c-14.9,0-27.9-3.4-39-10.3c-8.7-5.1-14.4-11.8-17.3-20c-3.1-8-4.7-27.1-4.7-57.3V209.7h121.3
		v-80.3H275.3V0h-73c-3.3,26.2-9.3,48-18,65.3c-8.7,17.1-20.1,31.8-34.3,44c-14.2,12-31.4,21.3-51.7,28v72.3H155v179.7
		c0,23.8,2.4,41.7,7.3,53.7c4.7,12,13.4,23.7,26.3,35c13.3,11.1,28.7,19.4,46,25c18,6,38.7,9,62,9c21.3,0,40.6-2.1,57.7-6.3
		c16.9-3.8,36.7-11,59.3-21.7v-80.7C388.1,420.2,362.3,428.7,336.3,428.7z"/>
</g>
</svg>
