<?xml version="1.0" encoding="utf-8"?>
<!-- Generator: Adobe Illustrator 22.1.0, SVG Export Plug-In . SVG Version: 6.00 Build 0)  -->
<svg version="1.1" id="Livello_1" xmlns="http://www.w3.org/2000/svg" xmlns:xlink="http://www.w3.org/1999/xlink" x="0px" y="0px"
	 viewBox="0 0 512 512" style="enable-background:new 0 0 512 512;" xml:space="preserve">
<style type="text/css">
	.st0{fill:#1F25FA;}
</style>
<g>
	<path class="st0" d="M489.4,98.5c6-12.4,6.6-21.4,6.7-23.2c0.2-6.5-3.4-12.4-9.2-15.3c-5.8-2.8-12.7-1.9-17.7,2.2
		c-10.8,9.2-31.9,14.6-44.9,17c-22.2-19.9-47.1-30-74.1-30c-42.4,0-74,25.7-76.4,27.8c-35.8,35.7-41,69.5-39,91.6
		C117,152.3,66,76.5,63.8,73.2c-3.1-4.8-8.6-7.4-14.2-7.4C44,65.9,38.8,69,36,74c-24.8,43.8-18.5,83.1-3.1,112.1
		c-1.6,0.2-3.2,0.7-4.6,1.4C23,190,19.5,195,19,200.7c-3.8,40.6,15.8,70.7,39.5,90.8c-0.2,0.2-0.4,0.4-0.6,0.6
		c-4,3.8-5.8,9.5-4.8,15c8,40.5,39.5,61.3,66.2,71.8c-50.9,23.6-100.7,17.5-100.8,17.5c-7.8-1-15.1,3.5-17.6,10.9s0.6,15.5,7.3,19.4
		C60.7,456.8,115.1,472,170,472c102.1,0,169.6-52.5,172.7-55c118-98.5,122.8-211,121.2-244.9c17.9-14.8,39.8-42.4,44.6-48.6
		c4.6-6,4.6-14.3-0.1-20.2C503.8,97.7,496,95.8,489.4,98.5z M438.6,150.3c-5.7,3.3-8.8,9.8-7.9,16.3c0.2,1.2,15.3,121.8-108.6,225.2
		c-0.6,0.5-61.3,47.6-152.2,47.6c-29.2,0-58.4-4.9-87.3-14.6c26.9-5.5,58.3-16.7,87.9-38.8c5.4-4,7.7-10.9,5.9-17.4
		c-1.8-6.5-7.4-11.2-14-11.9c-0.6,0-47.1-5.3-68.3-34.8c6.8-0.2,13.9-0.8,21-1.9c7.5-1.1,13.3-7.2,13.9-14.8
		c0.6-7.6-4.1-14.6-11.3-16.9c-0.6-0.2-53.2-17.4-64.6-60.8c7.1,2,15.2,3.5,24.1,3.9c6.9,0.5,13.6-4.1,16-10.8
		c2.4-6.7,0.1-14.2-5.6-18.5c-2.2-1.6-47-36.3-33.2-88.8c28.8,30.7,92.7,82.8,200.2,90.2c5.8,0.3,11.3-2.4,14.5-7.2s3.7-11,1.2-16.3
		c-0.7-1.5-16.7-36.8,25.2-78.9c0.2-0.2,24.2-19.3,54.5-19.3c20.5,0,39.7,8.8,57.2,26.2c3.5,3.5,8.5,5.2,13.5,4.7
		c1.7-0.2,8.6-1.1,17.6-3.2c-1.9,1.5-3.9,3-6,4.5c-6.2,4.4-8.6,12.5-5.7,19.5c2.9,7,10.2,11.2,17.7,9.9c0.5-0.1,1.6-0.3,3.2-0.5
		C444.2,146.3,441,148.9,438.6,150.3L438.6,150.3z"/>
</g>
</svg>
